<?xml version="1.0" encoding="utf-8"?>
<!-- Generator: Adobe Illustrator 17.1.0, SVG Export Plug-In . SVG Version: 6.00 Build 0)  -->
<!DOCTYPE svg PUBLIC "-//W3C//DTD SVG 1.1//EN" "http://www.w3.org/Graphics/SVG/1.1/DTD/svg11.dtd">
<svg version="1.1" id="Layer_1" xmlns="http://www.w3.org/2000/svg" xmlns:xlink="http://www.w3.org/1999/xlink" x="0px" y="0px"
	 viewBox="0 0 271.4 54.7" enable-background="new 0 0 271.4 54.7" xml:space="preserve">
<path fill="#FFFFFF" d="M94.2,24.1c6-11.3,21.9-6.6,21.9,3.2c0,14.4,0,16.5,0,16.5c-0.1,8.9,1.8,8.1,4.1,8.8c1,0.3,0.9,1.2-0.4,1.2
	c-1.8,0-3.5,0-3.5,0h-9.5c0,0-1.6,0-3.5,0c-1.5,0-1.3-0.9-0.4-1.2c2.4-0.8,4.3,0.3,4.2-8.8c0,0,0-13.3,0-15.4c0-2.7-0.7-4.7-2.8-5.9
	c-2-1.2-4.5-0.9-6.3,0.2c-2,1.3-3.7,4.1-3.7,7l0,0.2c0,12.9,0,14,0,14c0,8.9,1.8,8.1,4.1,8.8c1,0.3,0.9,1.2-0.4,1.2
	c-1.8,0-3.5,0-3.5,0H85c0,0-1.6,0-3.5,0c-1.5,0-1.3-0.9-0.4-1.2c2.4-0.8,4.3,0.3,4.2-8.8c0,0,0-13.4,0-15.5c0-2.7-0.7-4.7-2.8-5.9
	c-2-1.2-4.4-0.9-6.3,0.2c-1.8,1.1-3.7,4.2-3.7,7.6c0,1.4,0,13.7,0,13.7c0,8.9,1.9,8.1,4.2,8.8c1,0.3,0.9,1.2-0.4,1.2
	c-1.8,0-3.5,0-3.5,0h-9.5c0,0-1.5,0-3.3,0c-1.5,0-1.3-0.9-0.4-1.2c2.4-0.8,4.2,0.3,4-8.8c0,0,0-13.7,0-15c0-1.3-0.5-4.5-4.4-4.6
	c-1.4,0-1.3-1.3-0.1-1.3c1.5,0,5.9,0.4,11.8-4.7c1-0.8,1.5-0.8,1.5,0.4c0,1.4,0,5.6,0,5.6c5.4-10.3,18.8-7.3,21.4,0.6L94.2,24.1z
	 M52.4,18.4c-4.7,4.5-9.1,4.4-12.2,4.4c-1,0-0.9,1-0.3,1c2.7,0,4.7,2.2,4.7,5.8v14.1c0.1,9.1-1.8,8-4.2,8.8
	c-0.9,0.3-1.1,1.2,0.4,1.2c1.8,0,3.5,0,3.5,0h9.5c0,0,1.4,0,3.3,0c1.3,0,1.5-0.9,0.4-1.2c-2.3-0.7-4.1,0-4-8.8V18.9
	C53.5,18.2,53.2,17.7,52.4,18.4z M32.2,40.1V2.5c8.4-0.8,18.5,3.2,20,13.5c0.2,1.1,1.2,0.8,1.2-0.2c0-0.7,0-15.7,0-15.7H26.7H0
	c0,0,0,15,0,15.7c0,0.9,1.1,1.3,1.2,0.2C2.8,5.7,12.8,1.7,21.3,2.5v41.2c0.2,8.9-2.8,8.1-5,8.9c-0.7,0.2-0.8,1.2,0.5,1.2
	c1.8,0,9.9,0,9.9,0l0.1,0c0,0,8,0,9.8,0c1.3,0,1.2-1,0.5-1.2c-2.2-0.8-5.1,0.1-5-8.9L32.2,40.1z M170.7,10.3v33.4
	c0.1,9.1-2.7,8.1-5,8.9c-0.7,0.2-0.9,1.2,0.5,1.2c1.8,0,8.9,0,8.9,0s8.1,0,9.9,0c1.1,0,1.5-0.9,0.5-1.3c-2.2-0.8-5,0.5-5-8.8V10.3
	l0-0.2c0-9.2,2.4-8.1,4.7-8.8C186.4,1,186.4,0,185,0c-1.8,0-9.9,0-9.9,0s-7,0-8.9,0c-1.5,0-1.1,1.1-0.3,1.3c2.4,0.7,4.8,0,4.7,8.8
	L170.7,10.3z M206.7,22.6c1.8-1.1,4.2-1.4,6.3-0.2c2,1.2,2.8,3.2,2.8,5.9c0,2.1,0,15.5,0,15.5c0.1,9.1-1.8,8-4.2,8.8
	c-0.9,0.3-1.1,1.2,0.4,1.2c1.8,0,3.5,0,3.5,0h9.5c0,0,1.6,0,3.5,0c1.3,0,1.5-0.9,0.4-1.2c-2.3-0.7-4.1,0-4.1-8.8c0,0,0-2.2,0-16.5
	c0-9.8-17.4-14.5-23.4-3.1c0,0,0-4.2,0-5.6c0-1.2-0.5-1.4-1.3-0.4c-4.5,5.5-10.6,4.6-12.1,4.7c-1.1,0.1-1.1,1.2,0.1,1.3
	c3.9,0.3,4.4,3.3,4.4,4.6c0,1.3,0,15,0,15c0.1,9.1-1.8,8-4.2,8.8c-0.9,0.3-1.1,1.2,0.4,1.2c1.8,0,3.5,0,3.5,0h9.5c0,0,1.6,0,3.5,0
	c1.3,0,1.5-0.9,0.4-1.2c-2.3-0.7-4.3,0-4.2-8.8c0,0,0-12.3,0-13.7C201.4,26.8,204.9,23.7,206.7,22.6z M256.2,23.2
	c0.5,0.9,0.2,1.8-0.1,2.5c-0.3,0.6-0.3,1.2-0.3,1.8c0,2.2,1.6,3.9,3.7,3.9s3.7-1.7,3.7-3.9c0-0.7,0-1.2-0.3-1.8l-0.2-0.4
	c-3.1-4.8-8-7.8-14.2-7.8c-9.2,0-17.8,8.2-17.8,18.5c0,10.3,6.8,18.4,16.9,18.7c7.4,0.2,13.8-3,17-10.8c0.5-1.6-0.7-2.2-1.6-0.4
	c-5.1,10.3-15.3,6.3-18.3,3.1c-2.6-2.7-4.4-6.2-4.7-11.4c-0.1-2,0.1-2.9,0.1-3.6c0.5-6.5,4.4-11.5,9.2-11.5c3,0,5.4,0.4,7,3.1
	L256.2,23.2z M264.2,50.4c0,2,1.6,3.6,3.6,3.6s3.6-1.6,3.6-3.6c0-2-1.6-3.6-3.6-3.6S264.2,48.4,264.2,50.4z M157.4,34.5
	c-0.7-9.6-8.6-17-18.2-17c-10.1,0-18.3,8.3-18.3,18.6c0,10.3,8.3,18.4,18.4,18.6c7.9,0.2,13.8-2.3,17.4-10.8
	c0.4-1.4-0.9-2.2-1.9-0.5c-5.8,11-16.6,7-19.6,3.9c-2.7-2.8-4.1-6.9-4.3-12.4l0.5,0h25.2C157.5,35,157.4,34.5,157.4,34.5z
	 M131.1,32.4c0.1-7.4,3.6-12.3,8.6-12.3c4.9,0,8.6,3.9,8.5,12.3h-16L131.1,32.4z"/>
</svg>
