<?xml version="1.0" encoding="utf-8"?>
<!-- Generator: Adobe Illustrator 17.1.0, SVG Export Plug-In . SVG Version: 6.00 Build 0)  -->
<!DOCTYPE svg PUBLIC "-//W3C//DTD SVG 1.1//EN" "http://www.w3.org/Graphics/SVG/1.1/DTD/svg11.dtd">
<svg version="1.1" id="Layer_1" xmlns="http://www.w3.org/2000/svg" xmlns:xlink="http://www.w3.org/1999/xlink" x="0px" y="0px"
	 viewBox="0 0 425 85.2" style="enable-background:new 0 0 425 85.2;" xml:space="preserve">
<style type="text/css">
	.st0{clip-path:url(#SVGID_2_);fill:#FFFFFF;}
	.st1{fill:#FFFFFF;}
	.st2{clip-path:url(#SVGID_4_);fill:#FFFFFF;}
</style>
<g>
	<defs>
		<rect id="SVGID_1_" y="0" width="425" height="85.2"/>
	</defs>
	<clipPath id="SVGID_2_">
		<use xlink:href="#SVGID_1_"  style="overflow:visible;"/>
	</clipPath>
	<path class="st0" d="M0,26.8h16.3v6.8c2.8-4.3,8-8,15.8-8c6.7,0,11.1,2.5,13.4,7.2c4.4-5,10.2-7.2,16.5-7.2
		c9.6,0,16.3,5.5,16.3,16.4v29.4H61.8V43.6c0-3.9-3.7-6.2-7.1-6.2c-4.2,0-7.5,3.1-7.5,7.4v26.6H30.9V43.6c0-3.9-3.8-6.2-7-6.2
		c-4.3,0-7.5,3.1-7.5,7.4v26.6H0V26.8z"/>
</g>
<polygon class="st1" points="94,55.1 75.7,25.9 94.3,25.9 103,41.7 110.1,25.9 127.4,25.9 103.6,71.1 86,71.1 "/>
<rect x="264.3" y="26.6" class="st1" width="16.6" height="44.3"/>
<g>
	<defs>
		<rect id="SVGID_3_" y="0" width="425" height="85.2"/>
	</defs>
	<clipPath id="SVGID_4_">
		<use xlink:href="#SVGID_3_"  style="overflow:visible;"/>
	</clipPath>
	<path class="st2" d="M133.5,26.1h16.7v9c2.8-6.9,7.6-9.7,14.2-9.6v15.6c-9.2-0.5-14.2,2.5-14.2,8.9v20.4h-16.7V26.1z"/>
	<path class="st2" d="M182.3,52H213v-4.1c0-15.9-10.6-23-23-23c-13.6,0-24.6,8.9-24.6,23.3v0.7c0,14.7,10.4,22.7,24.6,22.7
		c13.7,0,21.4-5.7,23-15.4h-15.7c-0.7,2.2-2.5,4-6.7,4C185.8,60.2,182.7,57.3,182.3,52 M182.4,43.3c0.7-5,3.6-7.6,7.6-7.6
		c4.5,0,6.8,2.9,6.9,7.6H182.4z"/>
	<path class="st2" d="M215.1,48.9v-0.7c0-15.1,10.7-23.3,24-23.3c11.1,0,21.3,4.7,22.2,18.6h-15.7c-0.5-3.6-2-5.8-6.1-5.8
		c-4.9,0-7.5,3.4-7.5,10.2v0.7c0,7.2,2.4,10.8,7.7,10.8c3.8,0,6.4-2.4,6.8-6.7h15c-0.4,11.4-8,18.8-22.9,18.8
		C225.3,71.6,215.1,64,215.1,48.9"/>
	<path class="st2" d="M284.8,26.1h16.7v6.4c2.5-4.2,6.9-7.6,13.6-7.6c10.1,0,18.6,7.5,18.6,23v0.7c0,15.5-8.6,22.9-18.6,22.9
		c-6.5,0-11.3-3.1-13.5-7.5v21.1h-16.7V26.1z M316.6,48.5v-0.7c0-7.1-2.9-10.5-7.9-10.5c-4.9,0-7.7,3.7-7.7,10.5v0.7
		c0,6.9,2.7,10.3,7.8,10.3C313.9,58.8,316.6,55.3,316.6,48.5"/>
	<path class="st2" d="M383.3,56.2h15.3c0.5,2.9,1.7,4.6,5.5,4.6c3.2,0,4.7-1.3,4.7-3.1c0-1.9-1.9-3-7.8-3.7
		c-11.9-1.4-17.2-4.6-17.2-14.1c0-10.2,8.9-15,19.7-15c11.5,0,19.2,3.8,20.2,14.7h-15c-0.5-2.6-1.9-4.2-5-4.2c-3,0-4.4,1.4-4.4,3
		c0,2,2,2.9,7,3.4C419.1,43.3,425,46.4,425,56c0,10.9-8.3,15.6-20.8,15.6C391.2,71.6,383.6,66.2,383.3,56.2"/>
	<path class="st2" d="M351.6,52h30.8v-4.1c0-15.9-10.6-23-23-23c-13.6,0-24.6,8.9-24.6,23.3v0.7c0,14.7,10.4,22.7,24.6,22.7
		c13.7,0,21.4-5.7,23-15.4h-15.7c-0.7,2.2-2.5,4-6.7,4C355.2,60.2,352.1,57.3,351.6,52 M351.7,43.3c0.7-5,3.6-7.6,7.6-7.6
		c4.5,0,6.8,2.9,6.9,7.6H351.7z"/>
	<path class="st2" d="M272.7,22.6c6.3,0,11.3-5.1,11.3-11.3C284,5.1,278.9,0,272.7,0c-6.3,0-11.3,5.1-11.3,11.3
		C261.3,17.6,266.4,22.6,272.7,22.6"/>
</g>
</svg>
